<svg width="180" height="59" viewBox="0 0 180 59" fill="none" xmlns="http://www.w3.org/2000/svg">
<g clip-path="url(#clip0_144_24)">
<path d="M23.2709 37.6609C20.7203 40.184 16.4006 40.1739 15.1942 36.8112C14.958 36.1529 14.7692 35.4759 14.6303 34.7852C14.0631 31.9648 14.3542 29.0416 15.4666 26.3849C16.5791 23.7283 18.4629 21.4576 20.8799 19.86C23.2969 18.2625 26.1385 17.4098 29.0454 17.4098C31.9523 17.4098 34.7939 18.2625 37.2109 19.86C39.6279 21.4576 41.5117 23.7283 42.6241 26.385C43.7366 29.0416 44.0276 31.9648 43.4605 34.7852C43.3216 35.4759 43.1328 36.1529 42.8965 36.8112C41.6901 40.1739 37.3704 40.184 34.8198 37.6609L30.8826 33.7661C30.5064 33.394 30.5453 32.7804 30.6491 32.2643C30.7121 31.9506 30.6797 31.6253 30.556 31.3298C30.4322 31.0342 30.2227 30.7816 29.9538 30.6039C29.6849 30.4262 29.3688 30.3313 29.0454 30.3313C28.722 30.3313 28.4059 30.4262 28.137 30.6039C27.8681 30.7816 27.6585 31.0342 27.5348 31.3298C27.411 31.6253 27.3786 31.9506 27.4418 32.2643C27.5455 32.7804 27.5843 33.394 27.2082 33.7661L23.2709 37.6609Z" fill="url(#paint0_linear_144_24)"/>
</g>
<defs>
<linearGradient id="paint0_linear_144_24" x1="42.4051" y1="24.6793" x2="16.3169" y2="24.6793" gradientUnits="userSpaceOnUse">
<stop stop-color="#161490"/>
<stop offset="0.510417" stop-color="#7476ED"/>
<stop offset="1" stop-color="#E56F8C"/>
</linearGradient>
<clipPath id="clip0_144_24">
<rect width="132.391" height="24.5027" fill="white" transform="translate(14.3478 17.4098)"/>
</clipPath>
</defs>
</svg>
